<mxfile host="app.diagrams.net" modified="2023-05-20T10:06:41.127Z" agent="Mozilla/5.0 (Windows NT 10.0; Win64; x64) AppleWebKit/537.36 (KHTML, like Gecko) Chrome/113.0.0.0 Safari/537.36 Edg/113.0.1774.50" etag="zS8wkTt1moIohdg_QHV-" version="21.3.2" type="github">
  <diagram name="Page-1" id="i1Ypg9lUtjLFvbH1eSQm">
    <mxGraphModel dx="1592" dy="1081" grid="1" gridSize="10" guides="1" tooltips="1" connect="1" arrows="1" fold="1" page="1" pageScale="1" pageWidth="850" pageHeight="1100" math="0" shadow="0">
      <root>
        <mxCell id="0" />
        <mxCell id="1" parent="0" />
        <mxCell id="BDYrUGB_7W5Lb2Sc9XxJ-21" value="Po6" style="ellipse;whiteSpace=wrap;html=1;" vertex="1" parent="1">
          <mxGeometry x="390" y="468" width="160" height="60" as="geometry" />
        </mxCell>
        <mxCell id="BDYrUGB_7W5Lb2Sc9XxJ-20" value="Po5" style="ellipse;whiteSpace=wrap;html=1;" vertex="1" parent="1">
          <mxGeometry x="90" y="468" width="160" height="60" as="geometry" />
        </mxCell>
        <mxCell id="BDYrUGB_7W5Lb2Sc9XxJ-1" value="n5k-APP-S1" style="rounded=0;whiteSpace=wrap;html=1;" vertex="1" parent="1">
          <mxGeometry x="60" y="300" width="120" height="60" as="geometry" />
        </mxCell>
        <mxCell id="BDYrUGB_7W5Lb2Sc9XxJ-2" value="n5k-APP-S2" style="rounded=0;whiteSpace=wrap;html=1;" vertex="1" parent="1">
          <mxGeometry x="470" y="300" width="120" height="60" as="geometry" />
        </mxCell>
        <mxCell id="BDYrUGB_7W5Lb2Sc9XxJ-3" value="&lt;pre style=&quot;box-sizing: inherit; margin-top: 0px; margin-bottom: 0px; color: rgb(57, 57, 59); text-align: left; font-family: Menlo, Monaco, Consolas; line-height: unset; word-break: break-word;&quot;&gt;&lt;font style=&quot;font-size: 14px;&quot;&gt;CYM1-WYAPP-FW1&lt;br/&gt;   Standby&lt;/font&gt;&lt;/pre&gt;" style="rounded=1;whiteSpace=wrap;html=1;" vertex="1" parent="1">
          <mxGeometry x="60" y="550" width="120" height="60" as="geometry" />
        </mxCell>
        <mxCell id="BDYrUGB_7W5Lb2Sc9XxJ-4" value="&lt;pre style=&quot;border-color: var(--border-color); box-sizing: inherit; margin-top: 0px; margin-bottom: 0px; color: rgb(57, 57, 59); text-align: left; font-family: Menlo, Monaco, Consolas; line-height: unset; word-break: break-word;&quot;&gt;&lt;font style=&quot;border-color: var(--border-color); font-size: 14px;&quot;&gt;CYM1-WYAPP-FW2&lt;br/&gt;    Active&lt;/font&gt;&lt;/pre&gt;" style="rounded=1;whiteSpace=wrap;html=1;" vertex="1" parent="1">
          <mxGeometry x="470" y="560" width="120" height="60" as="geometry" />
        </mxCell>
        <mxCell id="BDYrUGB_7W5Lb2Sc9XxJ-5" value="" style="endArrow=none;html=1;rounded=0;" edge="1" parent="1">
          <mxGeometry width="50" height="50" relative="1" as="geometry">
            <mxPoint x="120" y="550" as="sourcePoint" />
            <mxPoint x="120" y="370" as="targetPoint" />
          </mxGeometry>
        </mxCell>
        <mxCell id="BDYrUGB_7W5Lb2Sc9XxJ-6" value="" style="endArrow=none;html=1;rounded=0;" edge="1" parent="1">
          <mxGeometry width="50" height="50" relative="1" as="geometry">
            <mxPoint x="529.5" y="550" as="sourcePoint" />
            <mxPoint x="529.5" y="370" as="targetPoint" />
          </mxGeometry>
        </mxCell>
        <mxCell id="BDYrUGB_7W5Lb2Sc9XxJ-7" value="" style="endArrow=none;html=1;rounded=0;" edge="1" parent="1">
          <mxGeometry width="50" height="50" relative="1" as="geometry">
            <mxPoint x="130" y="540" as="sourcePoint" />
            <mxPoint x="520" y="370" as="targetPoint" />
          </mxGeometry>
        </mxCell>
        <mxCell id="BDYrUGB_7W5Lb2Sc9XxJ-8" value="" style="endArrow=none;html=1;rounded=0;" edge="1" parent="1">
          <mxGeometry width="50" height="50" relative="1" as="geometry">
            <mxPoint x="130" y="380" as="sourcePoint" />
            <mxPoint x="510" y="550" as="targetPoint" />
          </mxGeometry>
        </mxCell>
        <mxCell id="BDYrUGB_7W5Lb2Sc9XxJ-9" value="e1/4" style="text;html=1;align=center;verticalAlign=middle;resizable=0;points=[];autosize=1;strokeColor=none;fillColor=none;" vertex="1" parent="1">
          <mxGeometry x="55" y="368" width="50" height="30" as="geometry" />
        </mxCell>
        <mxCell id="BDYrUGB_7W5Lb2Sc9XxJ-10" value="e1/16" style="text;html=1;align=center;verticalAlign=middle;resizable=0;points=[];autosize=1;strokeColor=none;fillColor=none;" vertex="1" parent="1">
          <mxGeometry x="145" y="368" width="50" height="30" as="geometry" />
        </mxCell>
        <mxCell id="BDYrUGB_7W5Lb2Sc9XxJ-11" value="e1/4" style="text;html=1;align=center;verticalAlign=middle;resizable=0;points=[];autosize=1;strokeColor=none;fillColor=none;" vertex="1" parent="1">
          <mxGeometry x="435" y="368" width="50" height="30" as="geometry" />
        </mxCell>
        <mxCell id="BDYrUGB_7W5Lb2Sc9XxJ-12" value="e1/16" style="text;html=1;align=center;verticalAlign=middle;resizable=0;points=[];autosize=1;strokeColor=none;fillColor=none;" vertex="1" parent="1">
          <mxGeometry x="525" y="368" width="50" height="30" as="geometry" />
        </mxCell>
        <mxCell id="BDYrUGB_7W5Lb2Sc9XxJ-13" value="xe1/4" style="text;html=1;align=center;verticalAlign=middle;resizable=0;points=[];autosize=1;strokeColor=none;fillColor=none;" vertex="1" parent="1">
          <mxGeometry x="60" y="520" width="50" height="30" as="geometry" />
        </mxCell>
        <mxCell id="BDYrUGB_7W5Lb2Sc9XxJ-14" value="xe1/5" style="text;html=1;align=center;verticalAlign=middle;resizable=0;points=[];autosize=1;strokeColor=none;fillColor=none;" vertex="1" parent="1">
          <mxGeometry x="145" y="528" width="50" height="30" as="geometry" />
        </mxCell>
        <mxCell id="BDYrUGB_7W5Lb2Sc9XxJ-15" value="xe1/4" style="text;html=1;align=center;verticalAlign=middle;resizable=0;points=[];autosize=1;strokeColor=none;fillColor=none;" vertex="1" parent="1">
          <mxGeometry x="435" y="528" width="50" height="30" as="geometry" />
        </mxCell>
        <mxCell id="BDYrUGB_7W5Lb2Sc9XxJ-18" value="xe1/5" style="text;html=1;align=center;verticalAlign=middle;resizable=0;points=[];autosize=1;strokeColor=none;fillColor=none;" vertex="1" parent="1">
          <mxGeometry x="525" y="528" width="50" height="30" as="geometry" />
        </mxCell>
        <mxCell id="BDYrUGB_7W5Lb2Sc9XxJ-22" value="" style="endArrow=classic;html=1;rounded=0;" edge="1" parent="1">
          <mxGeometry width="50" height="50" relative="1" as="geometry">
            <mxPoint x="40" y="420" as="sourcePoint" />
            <mxPoint x="40" y="398" as="targetPoint" />
            <Array as="points" />
          </mxGeometry>
        </mxCell>
        <mxCell id="BDYrUGB_7W5Lb2Sc9XxJ-23" value="" style="endArrow=classic;html=1;rounded=0;" edge="1" parent="1">
          <mxGeometry width="50" height="50" relative="1" as="geometry">
            <mxPoint x="240" y="420" as="sourcePoint" />
            <mxPoint x="240" y="398" as="targetPoint" />
            <Array as="points" />
          </mxGeometry>
        </mxCell>
        <mxCell id="BDYrUGB_7W5Lb2Sc9XxJ-24" value="" style="endArrow=classic;html=1;rounded=0;" edge="1" parent="1">
          <mxGeometry width="50" height="50" relative="1" as="geometry">
            <mxPoint x="480" y="420" as="sourcePoint" />
            <mxPoint x="480" y="398" as="targetPoint" />
            <Array as="points" />
          </mxGeometry>
        </mxCell>
        <mxCell id="BDYrUGB_7W5Lb2Sc9XxJ-25" value="" style="endArrow=classic;html=1;rounded=0;" edge="1" parent="1">
          <mxGeometry width="50" height="50" relative="1" as="geometry">
            <mxPoint x="600" y="412" as="sourcePoint" />
            <mxPoint x="600" y="390" as="targetPoint" />
            <Array as="points" />
          </mxGeometry>
        </mxCell>
        <mxCell id="BDYrUGB_7W5Lb2Sc9XxJ-26" value="" style="endArrow=classic;html=1;rounded=0;" edge="1" parent="1">
          <mxGeometry width="50" height="50" relative="1" as="geometry">
            <mxPoint x="65" y="398" as="sourcePoint" />
            <mxPoint x="65" y="418" as="targetPoint" />
            <Array as="points" />
          </mxGeometry>
        </mxCell>
        <mxCell id="BDYrUGB_7W5Lb2Sc9XxJ-27" value="" style="endArrow=classic;html=1;rounded=0;" edge="1" parent="1">
          <mxGeometry width="50" height="50" relative="1" as="geometry">
            <mxPoint x="260" y="398" as="sourcePoint" />
            <mxPoint x="260" y="418" as="targetPoint" />
            <Array as="points" />
          </mxGeometry>
        </mxCell>
        <mxCell id="BDYrUGB_7W5Lb2Sc9XxJ-28" value="" style="endArrow=classic;html=1;rounded=0;" edge="1" parent="1">
          <mxGeometry width="50" height="50" relative="1" as="geometry">
            <mxPoint x="500" y="400" as="sourcePoint" />
            <mxPoint x="500" y="420" as="targetPoint" />
            <Array as="points" />
          </mxGeometry>
        </mxCell>
        <mxCell id="BDYrUGB_7W5Lb2Sc9XxJ-29" value="" style="endArrow=classic;html=1;rounded=0;" edge="1" parent="1">
          <mxGeometry width="50" height="50" relative="1" as="geometry">
            <mxPoint x="630" y="390" as="sourcePoint" />
            <mxPoint x="630" y="410" as="targetPoint" />
            <Array as="points" />
          </mxGeometry>
        </mxCell>
        <mxCell id="BDYrUGB_7W5Lb2Sc9XxJ-32" value="504bps" style="text;html=1;align=center;verticalAlign=middle;resizable=0;points=[];autosize=1;strokeColor=none;fillColor=none;" vertex="1" parent="1">
          <mxGeometry x="-10" y="418" width="60" height="30" as="geometry" />
        </mxCell>
        <mxCell id="BDYrUGB_7W5Lb2Sc9XxJ-33" value="568bps" style="text;html=1;align=center;verticalAlign=middle;resizable=0;points=[];autosize=1;strokeColor=none;fillColor=none;" vertex="1" parent="1">
          <mxGeometry x="45" y="418" width="60" height="30" as="geometry" />
        </mxCell>
        <mxCell id="BDYrUGB_7W5Lb2Sc9XxJ-34" value="311M" style="text;html=1;align=center;verticalAlign=middle;resizable=0;points=[];autosize=1;strokeColor=none;fillColor=none;" vertex="1" parent="1">
          <mxGeometry x="205" y="418" width="50" height="30" as="geometry" />
        </mxCell>
        <mxCell id="BDYrUGB_7W5Lb2Sc9XxJ-35" value="760M" style="text;html=1;align=center;verticalAlign=middle;resizable=0;points=[];autosize=1;strokeColor=none;fillColor=none;" vertex="1" parent="1">
          <mxGeometry x="245" y="418" width="50" height="30" as="geometry" />
        </mxCell>
        <mxCell id="BDYrUGB_7W5Lb2Sc9XxJ-36" value="120bps" style="text;html=1;align=center;verticalAlign=middle;resizable=0;points=[];autosize=1;strokeColor=none;fillColor=none;" vertex="1" parent="1">
          <mxGeometry x="440" y="418" width="60" height="30" as="geometry" />
        </mxCell>
        <mxCell id="BDYrUGB_7W5Lb2Sc9XxJ-38" value="408bps" style="text;html=1;align=center;verticalAlign=middle;resizable=0;points=[];autosize=1;strokeColor=none;fillColor=none;" vertex="1" parent="1">
          <mxGeometry x="485" y="418" width="60" height="30" as="geometry" />
        </mxCell>
        <mxCell id="BDYrUGB_7W5Lb2Sc9XxJ-39" value="272M" style="text;html=1;align=center;verticalAlign=middle;resizable=0;points=[];autosize=1;strokeColor=none;fillColor=none;" vertex="1" parent="1">
          <mxGeometry x="565" y="408" width="50" height="30" as="geometry" />
        </mxCell>
        <mxCell id="BDYrUGB_7W5Lb2Sc9XxJ-40" value="728M" style="text;html=1;align=center;verticalAlign=middle;resizable=0;points=[];autosize=1;strokeColor=none;fillColor=none;" vertex="1" parent="1">
          <mxGeometry x="605" y="408" width="50" height="30" as="geometry" />
        </mxCell>
        <mxCell id="BDYrUGB_7W5Lb2Sc9XxJ-41" value="SVI 15, HSRP group 12, VIP 192.168.30.57" style="text;html=1;align=center;verticalAlign=middle;resizable=0;points=[];autosize=1;strokeColor=none;fillColor=none;" vertex="1" parent="1">
          <mxGeometry x="195" y="290" width="260" height="30" as="geometry" />
        </mxCell>
        <mxCell id="BDYrUGB_7W5Lb2Sc9XxJ-42" value="" style="endArrow=none;html=1;rounded=0;entryX=0;entryY=0.5;entryDx=0;entryDy=0;exitX=1;exitY=0.5;exitDx=0;exitDy=0;" edge="1" parent="1" source="BDYrUGB_7W5Lb2Sc9XxJ-1" target="BDYrUGB_7W5Lb2Sc9XxJ-2">
          <mxGeometry width="50" height="50" relative="1" as="geometry">
            <mxPoint x="350" y="580" as="sourcePoint" />
            <mxPoint x="400" y="530" as="targetPoint" />
          </mxGeometry>
        </mxCell>
        <mxCell id="BDYrUGB_7W5Lb2Sc9XxJ-43" value="VPC / HSRP" style="text;html=1;align=center;verticalAlign=middle;resizable=0;points=[];autosize=1;strokeColor=none;fillColor=none;" vertex="1" parent="1">
          <mxGeometry x="270" y="330" width="90" height="30" as="geometry" />
        </mxCell>
        <mxCell id="BDYrUGB_7W5Lb2Sc9XxJ-44" value="failover - 1" style="text;html=1;align=center;verticalAlign=middle;resizable=0;points=[];autosize=1;strokeColor=none;fillColor=none;" vertex="1" parent="1">
          <mxGeometry x="40" y="678" width="80" height="30" as="geometry" />
        </mxCell>
        <mxCell id="BDYrUGB_7W5Lb2Sc9XxJ-45" value="" style="endArrow=classic;html=1;rounded=0;" edge="1" parent="1">
          <mxGeometry width="50" height="50" relative="1" as="geometry">
            <mxPoint x="140" y="690" as="sourcePoint" />
            <mxPoint x="200" y="690" as="targetPoint" />
          </mxGeometry>
        </mxCell>
        <mxCell id="BDYrUGB_7W5Lb2Sc9XxJ-46" value="failover - 2" style="text;html=1;align=center;verticalAlign=middle;resizable=0;points=[];autosize=1;strokeColor=none;fillColor=none;" vertex="1" parent="1">
          <mxGeometry x="490" y="750" width="80" height="30" as="geometry" />
        </mxCell>
        <mxCell id="BDYrUGB_7W5Lb2Sc9XxJ-48" value="failover - 3" style="text;html=1;align=center;verticalAlign=middle;resizable=0;points=[];autosize=1;strokeColor=none;fillColor=none;" vertex="1" parent="1">
          <mxGeometry x="40" y="830" width="80" height="30" as="geometry" />
        </mxCell>
        <mxCell id="BDYrUGB_7W5Lb2Sc9XxJ-50" value="" style="endArrow=classic;html=1;rounded=0;" edge="1" parent="1">
          <mxGeometry width="50" height="50" relative="1" as="geometry">
            <mxPoint x="165" y="844.5" as="sourcePoint" />
            <mxPoint x="225" y="844.5" as="targetPoint" />
          </mxGeometry>
        </mxCell>
        <mxCell id="BDYrUGB_7W5Lb2Sc9XxJ-51" value="" style="endArrow=classic;html=1;rounded=0;" edge="1" parent="1">
          <mxGeometry width="50" height="50" relative="1" as="geometry">
            <mxPoint x="460" y="764.5" as="sourcePoint" />
            <mxPoint x="390" y="765" as="targetPoint" />
          </mxGeometry>
        </mxCell>
        <mxCell id="BDYrUGB_7W5Lb2Sc9XxJ-52" value="e1/4 19:18:57 down" style="text;html=1;align=center;verticalAlign=middle;resizable=0;points=[];autosize=1;strokeColor=none;fillColor=none;" vertex="1" parent="1">
          <mxGeometry x="60" y="708" width="130" height="30" as="geometry" />
        </mxCell>
        <mxCell id="BDYrUGB_7W5Lb2Sc9XxJ-53" value="e1/16 19:22:38 down" style="text;html=1;align=center;verticalAlign=middle;resizable=0;points=[];autosize=1;strokeColor=none;fillColor=none;" vertex="1" parent="1">
          <mxGeometry x="390" y="780" width="140" height="30" as="geometry" />
        </mxCell>
        <mxCell id="BDYrUGB_7W5Lb2Sc9XxJ-54" value="e1/4 19:24:57 down" style="text;html=1;align=center;verticalAlign=middle;resizable=0;points=[];autosize=1;strokeColor=none;fillColor=none;" vertex="1" parent="1">
          <mxGeometry x="60" y="860" width="130" height="30" as="geometry" />
        </mxCell>
      </root>
    </mxGraphModel>
  </diagram>
</mxfile>
